<svg width="691" height="140" viewBox="0 0 691 140" fill="none" xmlns="http://www.w3.org/2000/svg">
<path d="M46.6982 120.99L43.1817 130.531H41.0176L51.1493 102.915H53.6823L64.2567 130.531H61.9204L58.3302 120.99H46.6982ZM57.6169 119.023C54.543 110.809 52.9691 106.874 52.4035 105.03H52.3543C51.6903 107.12 49.9197 112.014 47.436 119.023H57.6169Z" fill="#DADADA"/>
<path d="M79.8979 102.915V119.638C79.8979 126.966 84.0294 128.859 87.9394 128.859C92.5627 128.859 95.9809 126.917 95.9809 119.638V102.915H98.145V119.515C98.145 128.146 93.571 130.827 87.8411 130.827C82.1113 130.827 77.6602 127.876 77.6602 119.859V102.891H79.8733L79.8979 102.915Z" fill="#DADADA"/>
<path d="M121.556 104.906H112.285V102.938H133.04V104.906H123.72V130.53H121.556V104.906Z" fill="#DADADA"/>
<path d="M169.463 116.54C169.463 124.066 165.429 130.927 156.921 130.927C149.15 130.927 144.625 124.656 144.625 116.737C144.625 108.819 149.002 102.548 157.216 102.548C164.79 102.548 169.487 108.499 169.487 116.54H169.463ZM146.912 116.614C146.912 122.959 150.429 128.959 157.044 128.959C164.175 128.959 167.175 123.131 167.175 116.565C167.175 109.999 163.782 104.491 157.118 104.491C150.011 104.491 146.912 110.368 146.912 116.59V116.614Z" fill="#DADADA"/>
<path d="M209.297 117.842C209.297 112.432 209.346 107.268 209.444 104.514H209.321C208.215 108.227 202.608 121.826 199.116 130.531H197.026C194.37 123.793 188.591 108.645 187.312 104.464H187.238C187.435 107.612 187.509 114.055 187.509 118.777V130.531H185.369V102.915H188.566C192.353 112.383 197.124 124.752 198.157 127.876H198.231C198.87 125.859 204.378 112.088 208.239 102.915H211.387V130.531H209.248V117.842H209.297Z" fill="#DADADA"/>
<path d="M231.874 120.99L228.357 130.531H226.193L236.325 102.915H238.858L249.432 130.531H247.096L243.506 120.99H231.874ZM242.793 119.023C239.719 110.809 238.145 106.874 237.579 105.03H237.53C236.866 107.12 235.096 112.014 232.612 119.023H242.793Z" fill="#DADADA"/>
<path d="M284.574 123.156C283.271 127.533 280.049 130.853 274.197 130.853C266.278 130.853 262.098 124.533 262.098 116.786C262.098 109.04 266.204 102.548 274.246 102.548C280.197 102.548 283.714 105.868 284.624 110.466H282.484C281.23 106.876 278.894 104.515 274.123 104.515C267.262 104.515 264.385 110.786 264.385 116.737C264.385 122.688 267.237 128.886 274.295 128.886C278.795 128.886 281.082 126.549 282.459 123.156H284.599H284.574ZM275.377 130.533L273.754 132.697C275.205 132.845 277.861 133.632 277.861 136.337C277.861 139.288 275.328 140.001 273.484 140.001C272.033 140.001 271.147 139.73 270.631 139.484V137.542C271.369 137.886 272.721 138.083 273.484 138.083C275.008 138.083 275.844 137.542 275.844 136.46C275.844 134.763 273.631 134.369 271.32 134.369V133.46L273.68 130.115L275.377 130.509V130.533Z" fill="#DADADA"/>
<path d="M302.94 120.99L299.424 130.532H297.26L307.391 102.915H309.925L320.499 130.532H318.163L314.572 120.99H302.94ZM302.104 100.038V99.5216C302.104 96.9149 303.334 95.9312 305.178 95.9312C307.515 95.9312 310.195 98.1691 311.793 98.1691C312.654 98.1691 313.171 97.7265 313.171 96.2264V95.71H314.818V96.4231C314.818 99.079 313.712 100.013 311.818 100.013C309.482 100.013 306.998 97.6773 305.104 97.6773C304.367 97.6773 303.85 98.12 303.85 99.3004V100.013H302.08L302.104 100.038ZM313.859 118.998C310.785 110.785 309.211 106.85 308.646 105.006H308.596C307.932 107.096 306.162 111.99 303.678 118.998H313.859Z" fill="#DADADA"/>
<path d="M358.029 116.54C358.029 124.066 353.996 130.927 345.487 130.927C337.716 130.927 333.191 124.656 333.191 116.737C333.191 108.819 337.569 102.548 345.782 102.548C353.357 102.548 358.054 108.499 358.054 116.54H358.029ZM335.478 116.614C335.478 122.959 338.995 128.959 345.61 128.959C352.742 128.959 355.742 123.131 355.742 116.565C355.742 109.999 352.348 104.491 345.684 104.491C338.577 104.491 335.478 110.368 335.478 116.59V116.614Z" fill="#DADADA"/>
<path d="M414.908 123.156C413.605 127.533 410.383 130.853 404.531 130.853C396.612 130.853 392.432 124.533 392.432 116.786C392.432 109.04 396.538 102.548 404.58 102.548C410.531 102.548 414.048 105.868 414.957 110.466H412.818C411.564 106.876 409.228 104.515 404.457 104.515C397.596 104.515 394.719 110.786 394.719 116.737C394.719 122.688 397.547 128.886 404.629 128.886C409.129 128.886 411.416 126.549 412.793 123.156H414.933H414.908Z" fill="#DADADA"/>
<path d="M453.961 116.54C453.961 124.066 449.928 130.927 441.419 130.927C433.648 130.927 429.123 124.656 429.123 116.737C429.123 108.819 433.5 102.548 441.714 102.548C449.288 102.548 453.985 108.499 453.985 116.54H453.961ZM431.41 116.614C431.41 122.959 434.927 128.959 441.542 128.959C448.673 128.959 451.674 123.131 451.674 116.565C451.674 109.999 448.28 104.491 441.616 104.491C434.509 104.491 431.41 110.368 431.41 116.59V116.614Z" fill="#DADADA"/>
<path d="M469.898 130.531V102.915H473.045C477.349 109.53 487.431 124.949 489.177 127.949H489.227C488.981 123.965 489.03 119.908 489.03 115.408V102.915H491.194V130.531H488.268C484.161 124.138 473.906 108.104 471.939 105.054H471.89C472.086 108.694 472.037 112.703 472.037 117.719V130.531H469.873H469.898Z" fill="#DADADA"/>
<path d="M514.701 104.906H505.43V102.938H526.185V104.906H516.889V130.53H514.725V104.906H514.701Z" fill="#DADADA"/>
<path d="M539.886 120.99L536.369 130.532H534.205L544.337 102.915H546.87L557.444 130.532H555.108L551.518 120.99H539.886ZM550.804 119.023C547.73 110.809 546.157 106.875 545.591 105.03H545.542C544.878 107.121 543.107 112.014 540.624 119.023H550.804ZM553.411 94.9971L546.796 100.407H544.361L550.436 94.9971H553.436H553.411Z" fill="#DADADA"/>
<path d="M572.196 102.915H581.812C587.099 102.915 589.927 105.719 589.927 109.703C589.927 112.973 587.96 115.113 585.673 115.728C587.64 116.269 590.911 118.211 590.911 122.539C590.911 128.072 586.779 130.507 581.959 130.507H572.172V102.891L572.196 102.915ZM581.099 114.793C585.869 114.793 587.689 113.022 587.689 109.825C587.689 107.096 585.796 104.907 581.935 104.907H574.287V114.818H581.099V114.793ZM574.287 128.564H582.058C585.673 128.564 588.722 126.744 588.722 122.687C588.722 119.17 586.484 116.76 580.902 116.76H574.287V128.54V128.564Z" fill="#DADADA"/>
<path d="M609.229 102.915V130.531H607.09V102.915H609.229Z" fill="#DADADA"/>
<path d="M627.234 102.915H629.374V128.54H644.203L643.809 130.507H627.234V102.891V102.915Z" fill="#DADADA"/>
<path d="M0.0246156 37.4529C0.0246156 13.7712 15.6895 0.0244141 33.7398 0.0244141C42.9616 0.0244141 50.4128 4.37718 55.2082 9.2955L46.6994 19.6486C43.1091 16.3042 39.2728 13.968 34.0839 13.968C24.2965 13.968 16.5501 22.5995 16.5501 36.9118C16.5501 51.2241 23.3866 60.1263 33.8135 60.1263C39.6663 60.1263 44.2895 57.2492 47.7815 53.4621L56.2902 63.5938C50.3636 70.4795 42.4697 74.0699 33.2233 74.0699C15.1239 74.0699 0 61.5035 0 37.4529H0.0246156Z" fill="#DADADA"/>
<path d="M65.2402 36.7398C65.2402 13.4024 78.4213 0.0244141 97.6766 0.0244141C116.932 0.0244141 130.113 13.5007 130.113 36.7398C130.113 59.9789 116.932 74.0699 97.6766 74.0699C78.4213 74.0699 65.2402 60.0772 65.2402 36.7398ZM113.563 36.7398C113.563 22.4275 107.415 13.968 97.6766 13.968C87.9383 13.968 81.7903 22.4275 81.7903 36.7398C81.7903 51.0521 87.9383 60.1263 97.6766 60.1263C107.415 60.1263 113.563 51.0521 113.563 36.7398Z" fill="#DADADA"/>
<path d="M149.049 1.32812H165.599L184.239 36.8384L191.297 52.5279H191.74C190.978 44.9782 189.674 34.9695 189.674 26.5591V1.32812H205.069V72.7421H188.518L169.878 37.1335L162.82 21.5424H162.378C163.14 29.4117 164.443 38.9779 164.443 47.4128V72.7667H149.049V1.35274V1.32812Z" fill="#DADADA"/>
<path d="M241.367 14.8781H221.719V1.32812H277.173V14.8781H257.524V72.7421H241.367V14.8781Z" fill="#DADADA"/>
<path d="M302.7 1.32812H322.029L344.457 72.7421H327.365L318.021 36.5679C316.029 29.4364 314.135 20.9769 312.217 13.5256H311.775C310.053 21.0752 308.135 29.4118 306.143 36.5679L296.749 72.7421H280.248L302.676 1.32812H302.7ZM295.052 43.1831H329.407V55.7247H295.052V43.1831Z" fill="#DADADA"/>
<path d="M356.799 1.32812H372.956V59.1922H401.137V72.7421H356.799V1.32812Z" fill="#029694"/>
<path d="M421.895 47.2896L400.377 1.35254H417.64L424.009 17.7551C425.928 23.1161 427.797 28.059 429.813 33.5921H430.256C432.297 28.059 434.338 23.1161 436.281 17.7551L442.65 1.35254H459.52L438.002 47.2896V72.7665H421.845V47.2896H421.895Z" fill="#029694"/>
<path d="M484.627 14.8781H464.979V1.32812H520.433V14.8781H500.784V72.7421H484.627V14.8781Z" fill="#029694"/>
<path d="M537.059 1.32812H553.215V72.7421H537.059V1.32812Z" fill="#029694"/>
<path d="M572.148 37.4529C572.148 13.7712 587.813 0.0244141 605.863 0.0244141C615.085 0.0244141 622.537 4.37718 627.332 9.2955L618.823 19.6486C615.233 16.3042 611.397 13.968 606.232 13.968C596.445 13.968 588.699 22.5995 588.699 36.9118C588.699 51.2241 595.535 60.1263 605.962 60.1263C611.815 60.1263 616.438 57.2492 619.93 53.4621L628.439 63.5938C622.512 70.4795 614.618 74.0699 605.372 74.0699C587.248 74.0699 572.148 61.5035 572.148 37.4529Z" fill="#029694"/>
<path d="M637.097 63.7414L646.368 52.6752C651.458 57.1017 658.024 60.1264 663.902 60.1264C670.64 60.1264 673.935 57.4705 673.935 53.2407C673.935 48.7405 669.877 47.2897 663.631 44.7321L654.36 40.7728C646.958 37.7726 639.949 31.6739 639.949 21.2963C639.949 9.4677 650.524 0 665.377 0C673.591 0 682.198 3.24609 688.346 9.3694L680.206 19.5502C675.509 15.9352 671.033 13.968 665.377 13.968C659.721 13.968 656.278 16.2796 656.278 20.3618C656.278 24.7391 660.951 26.3375 667.172 28.8213L676.271 32.51C685.001 36.0266 690.436 41.8549 690.436 51.9375C690.436 63.7906 680.55 74.0699 663.533 74.0699C654.237 74.0699 644.376 70.5533 637.072 63.7414H637.097Z" fill="#029694"/>
</svg>
