<svg width="224" height="224" viewBox="0 0 224 224" fill="none" xmlns="http://www.w3.org/2000/svg">
<path d="M177.825 132.562L194.805 149.542C195.635 150.372 195.635 151.732 194.805 152.562L131.735 215.632C120.825 226.542 103.135 226.542 92.2249 215.632L8.175 131.582C-2.725 120.682 -2.725 103.002 8.175 92.1024L43.025 57.2524C43.855 56.4224 45.215 56.4224 46.045 57.2524L63.015 74.2224C63.845 75.0524 63.845 76.4124 63.015 77.2424L34.4649 105.792C31.0349 109.222 31.0449 114.772 34.4649 118.192L105.605 189.332C109.025 192.752 114.575 192.762 118.005 189.332L174.775 132.562C175.605 131.732 176.965 131.732 177.795 132.562H177.825Z" fill="#029694"/>
<path d="M129.246 7.5325L216.306 94.5925C226.376 104.662 226.376 121.002 216.306 131.072L203.896 143.482C203.016 144.363 201.586 144.363 200.696 143.482L182.776 125.562C182.356 125.143 182.306 124.492 182.616 123.992C185.966 118.652 186.596 112.103 184.506 106.312L184.406 106.412C184.396 106.342 184.366 106.262 184.336 106.192C183.336 103.392 181.716 100.762 179.476 98.5225L158.646 77.6925C151.376 70.4225 139.616 70.3825 132.396 77.6125L107.976 102.033C103.546 106.463 103.566 113.682 108.036 118.152L134.366 144.482C135.246 145.363 135.246 146.792 134.366 147.682L119.616 162.432C118.736 163.312 117.306 163.312 116.416 162.432L80.8159 126.832C72.1559 118.172 72.1559 104.142 80.8159 95.4925L129.146 47.1625L128.756 46.7725C119.026 37.0425 103.256 37.0425 93.5258 46.7725L72.6659 67.6325C71.7859 68.5125 70.3558 68.5125 69.4658 67.6325L52.6659 50.8325C51.7859 49.9525 51.7859 48.5225 52.6659 47.6325L92.7458 7.5525C102.816 -2.5175 119.156 -2.5175 129.226 7.5525L129.246 7.5325Z" fill="#DADADA"/>
</svg>
