<svg width="282" height="58" viewBox="0 0 282 58" fill="none" xmlns="http://www.w3.org/2000/svg">
<path d="M19.4194 50.1595L17.9894 54.0396H17.1094L21.2294 42.8096H22.2594L26.5594 54.0396H25.6094L24.1494 50.1595H19.4194ZM23.8594 49.3596C22.6094 46.0196 21.9694 44.4196 21.7394 43.6696H21.7194C21.4494 44.5196 20.7294 46.5096 19.7194 49.3596H23.8594Z" fill="#DADADA"/>
<path d="M32.9197 42.8098V49.6098C32.9197 52.5898 34.5998 53.3598 36.1898 53.3598C38.0698 53.3598 39.4598 52.5698 39.4598 49.6098V42.8098H40.3398V49.5598C40.3398 53.0698 38.4798 54.1598 36.1498 54.1598C33.8198 54.1598 32.0098 52.9598 32.0098 49.6998V42.7998H32.9097L32.9197 42.8098Z" fill="#DADADA"/>
<path d="M49.8598 43.6203H46.0898V42.8203H54.5298V43.6203H50.7398V54.0403H49.8598V43.6203Z" fill="#DADADA"/>
<path d="M69.3403 48.3502C69.3403 51.4102 67.7002 54.2002 64.2402 54.2002C61.0802 54.2002 59.2402 51.6502 59.2402 48.4302C59.2402 45.2102 61.0202 42.6602 64.3602 42.6602C67.4402 42.6602 69.3502 45.0802 69.3502 48.3502H69.3403ZM60.1702 48.3802C60.1702 50.9602 61.6002 53.4002 64.2902 53.4002C67.1902 53.4002 68.4102 51.0302 68.4102 48.3602C68.4102 45.6902 67.0303 43.4502 64.3203 43.4502C61.4303 43.4502 60.1702 45.8402 60.1702 48.3702V48.3802Z" fill="#DADADA"/>
<path d="M85.5386 48.8796C85.5386 46.6796 85.5586 44.5796 85.5986 43.4596H85.5486C85.0986 44.9696 82.8186 50.4996 81.3986 54.0396H80.5486C79.4686 51.2996 77.1186 45.1396 76.5986 43.4396H76.5686C76.6486 44.7196 76.6786 47.3396 76.6786 49.2596V54.0396H75.8086V42.8096H77.1086C78.6486 46.6596 80.5886 51.6896 81.0086 52.9596H81.0386C81.2986 52.1396 83.5386 46.5396 85.1086 42.8096H86.3886V54.0396H85.5186V48.8796H85.5386Z" fill="#DADADA"/>
<path d="M94.7202 50.1595L93.2902 54.0396H92.4102L96.5302 42.8096H97.5602L101.86 54.0396H100.91L99.4502 50.1595H94.7202ZM99.1602 49.3596C97.9102 46.0196 97.2702 44.4196 97.0402 43.6696H97.0202C96.7502 44.5196 96.0302 46.5096 95.0202 49.3596H99.1602Z" fill="#DADADA"/>
<path d="M116.15 51.0402C115.62 52.8202 114.31 54.1702 111.93 54.1702C108.71 54.1702 107.01 51.6002 107.01 48.4502C107.01 45.3002 108.68 42.6602 111.95 42.6602C114.37 42.6602 115.8 44.0102 116.17 45.8802H115.3C114.79 44.4202 113.84 43.4602 111.9 43.4602C109.11 43.4602 107.94 46.0102 107.94 48.4302C107.94 50.8502 109.1 53.3702 111.97 53.3702C113.8 53.3702 114.73 52.4202 115.29 51.0402H116.16H116.15ZM112.41 54.0402L111.75 54.9202C112.34 54.9802 113.42 55.3002 113.42 56.4002C113.42 57.6002 112.39 57.8902 111.64 57.8902C111.05 57.8902 110.69 57.7802 110.48 57.6802V56.8902C110.78 57.0302 111.33 57.1102 111.64 57.1102C112.26 57.1102 112.6 56.8902 112.6 56.4502C112.6 55.7602 111.7 55.6002 110.76 55.6002V55.2302L111.72 53.8702L112.41 54.0302V54.0402Z" fill="#DADADA"/>
<path d="M123.619 50.1599L122.189 54.0399H121.309L125.429 42.8099H126.459L130.759 54.0399H129.809L128.349 50.1599H123.619ZM123.279 41.6399V41.4299C123.279 40.3699 123.779 39.9698 124.529 39.9698C125.479 39.9698 126.569 40.8799 127.219 40.8799C127.569 40.8799 127.779 40.6999 127.779 40.0899V39.8799H128.449V40.1699C128.449 41.2499 127.999 41.6299 127.229 41.6299C126.279 41.6299 125.269 40.6799 124.499 40.6799C124.199 40.6799 123.989 40.8599 123.989 41.3399V41.6299H123.269L123.279 41.6399ZM128.059 49.3499C126.809 46.0099 126.169 44.4099 125.939 43.6599H125.919C125.649 44.5099 124.929 46.4999 123.919 49.3499H128.059Z" fill="#DADADA"/>
<path d="M146.02 48.3502C146.02 51.4102 144.38 54.2002 140.92 54.2002C137.76 54.2002 135.92 51.6502 135.92 48.4302C135.92 45.2102 137.7 42.6602 141.04 42.6602C144.12 42.6602 146.03 45.0802 146.03 48.3502H146.02ZM136.85 48.3802C136.85 50.9602 138.28 53.4002 140.97 53.4002C143.87 53.4002 145.09 51.0302 145.09 48.3602C145.09 45.6902 143.71 43.4502 141 43.4502C138.11 43.4502 136.85 45.8402 136.85 48.3702V48.3802Z" fill="#DADADA"/>
<path d="M169.15 51.0402C168.62 52.8202 167.31 54.1702 164.93 54.1702C161.71 54.1702 160.01 51.6002 160.01 48.4502C160.01 45.3002 161.68 42.6602 164.95 42.6602C167.37 42.6602 168.8 44.0102 169.17 45.8802H168.3C167.79 44.4202 166.84 43.4602 164.9 43.4602C162.11 43.4602 160.94 46.0102 160.94 48.4302C160.94 50.8502 162.09 53.3702 164.97 53.3702C166.8 53.3702 167.73 52.4202 168.29 51.0402H169.16H169.15Z" fill="#DADADA"/>
<path d="M185.03 48.3502C185.03 51.4102 183.39 54.2002 179.93 54.2002C176.77 54.2002 174.93 51.6502 174.93 48.4302C174.93 45.2102 176.71 42.6602 180.05 42.6602C183.13 42.6602 185.04 45.0802 185.04 48.3502H185.03ZM175.86 48.3802C175.86 50.9602 177.29 53.4002 179.98 53.4002C182.88 53.4002 184.1 51.0302 184.1 48.3602C184.1 45.6902 182.72 43.4502 180.01 43.4502C177.12 43.4502 175.86 45.8402 175.86 48.3702V48.3802Z" fill="#DADADA"/>
<path d="M191.51 54.0396V42.8096H192.79C194.54 45.4996 198.64 51.7696 199.35 52.9896H199.37C199.27 51.3696 199.29 49.7196 199.29 47.8896V42.8096H200.17V54.0396H198.98C197.31 51.4396 193.14 44.9196 192.34 43.6796H192.32C192.4 45.1596 192.38 46.7896 192.38 48.8296V54.0396H191.5H191.51Z" fill="#DADADA"/>
<path d="M209.729 43.6203H205.959V42.8203H214.399V43.6203H210.619V54.0403H209.739V43.6203H209.729Z" fill="#DADADA"/>
<path d="M219.97 50.1598L218.54 54.0398H217.66L221.78 42.8098H222.81L227.11 54.0398H226.16L224.7 50.1598H219.97ZM224.41 49.3598C223.16 46.0198 222.52 44.4198 222.29 43.6698H222.27C222 44.5198 221.28 46.5098 220.27 49.3598H224.41ZM225.47 39.5898L222.78 41.7898H221.79L224.26 39.5898H225.48H225.47Z" fill="#DADADA"/>
<path d="M233.11 42.8098H237.02C239.17 42.8098 240.32 43.9498 240.32 45.5698C240.32 46.8998 239.52 47.7698 238.59 48.0198C239.39 48.2398 240.72 49.0298 240.72 50.7898C240.72 53.0398 239.04 54.0298 237.08 54.0298H233.1V42.7998L233.11 42.8098ZM236.73 47.6398C238.67 47.6398 239.41 46.9198 239.41 45.6198C239.41 44.5098 238.64 43.6198 237.07 43.6198H233.96V47.6498H236.73V47.6398ZM233.96 53.2398H237.12C238.59 53.2398 239.83 52.4998 239.83 50.8498C239.83 49.4198 238.92 48.4398 236.65 48.4398H233.96V53.2298V53.2398Z" fill="#DADADA"/>
<path d="M248.169 42.8096V54.0396H247.299V42.8096H248.169Z" fill="#DADADA"/>
<path d="M255.49 42.8098H256.36V53.2298H262.39L262.23 54.0298H255.49V42.7998V42.8098Z" fill="#DADADA"/>
<path d="M0.439697 16.1898C0.439697 6.55976 6.80972 0.969727 14.1497 0.969727C17.8997 0.969727 20.9297 2.73975 22.8797 4.73975L19.4197 8.94977C17.9597 7.58977 16.3997 6.63977 14.2897 6.63977C10.3097 6.63977 7.15967 10.1497 7.15967 15.9697C7.15967 21.7897 9.93969 25.4097 14.1797 25.4097C16.5597 25.4097 18.4397 24.2398 19.8597 22.6998L23.3197 26.8198C20.9097 29.6198 17.6997 31.0798 13.9397 31.0798C6.5797 31.0798 0.429688 25.9698 0.429688 16.1898H0.439697Z" fill="#DADADA"/>
<path d="M26.959 15.8998C26.959 6.40978 32.319 0.969727 40.149 0.969727C47.979 0.969727 53.339 6.44978 53.339 15.8998C53.339 25.3498 47.979 31.0798 40.149 31.0798C32.319 31.0798 26.959 25.3898 26.959 15.8998ZM46.6089 15.8998C46.6089 10.0798 44.109 6.63977 40.149 6.63977C36.189 6.63977 33.689 10.0798 33.689 15.8998C33.689 21.7198 36.189 25.4097 40.149 25.4097C44.109 25.4097 46.6089 21.7198 46.6089 15.8998Z" fill="#DADADA"/>
<path d="M61.0391 1.5H67.7691L75.3491 15.94L78.2191 22.32H78.3991C78.0891 19.25 77.5591 15.18 77.5591 11.76V1.5H83.8191V30.54H77.0891L69.5091 16.06L66.6391 9.71997H66.4591C66.7691 12.92 67.2991 16.81 67.2991 20.24V30.55H61.0391V1.51001V1.5Z" fill="#DADADA"/>
<path d="M98.5798 7.01001H90.5898V1.5H113.14V7.01001H105.15V30.54H98.5798V7.01001Z" fill="#DADADA"/>
<path d="M123.521 1.5H131.381L140.501 30.54H133.551L129.751 15.83C128.941 12.93 128.171 9.49002 127.391 6.46002H127.211C126.511 9.53002 125.731 12.92 124.921 15.83L121.101 30.54H114.391L123.511 1.5H123.521ZM120.411 18.52H134.381V23.62H120.411V18.52Z" fill="#DADADA"/>
<path d="M145.52 1.5H152.09V25.03H163.549V30.54H145.52V1.5Z" fill="#029694"/>
<path d="M171.99 20.1898L163.24 1.50977H170.26L172.85 8.17975C173.63 10.3597 174.39 12.3698 175.21 14.6198H175.39C176.22 12.3698 177.05 10.3597 177.84 8.17975L180.43 1.50977H187.29L178.54 20.1898V30.5497H171.97V20.1898H171.99Z" fill="#029694"/>
<path d="M197.5 7.01001H189.51V1.5H212.06V7.01001H204.07V30.54H197.5V7.01001Z" fill="#029694"/>
<path d="M218.82 1.5H225.39V30.54H218.82V1.5Z" fill="#029694"/>
<path d="M233.09 16.1898C233.09 6.55976 239.46 0.969727 246.8 0.969727C250.55 0.969727 253.58 2.73975 255.53 4.73975L252.07 8.94977C250.61 7.58977 249.05 6.63977 246.95 6.63977C242.97 6.63977 239.82 10.1497 239.82 15.9697C239.82 21.7897 242.6 25.4097 246.84 25.4097C249.22 25.4097 251.1 24.2398 252.52 22.6998L255.98 26.8198C253.57 29.6198 250.36 31.0798 246.6 31.0798C239.23 31.0798 233.09 25.9698 233.09 16.1898Z" fill="#029694"/>
<path d="M259.5 26.8799L263.27 22.3799C265.34 24.1799 268.01 25.4099 270.4 25.4099C273.14 25.4099 274.48 24.3299 274.48 22.6099C274.48 20.7799 272.83 20.19 270.29 19.15L266.52 17.5399C263.51 16.3199 260.66 13.8399 260.66 9.61993C260.66 4.80993 264.96 0.959961 271 0.959961C274.34 0.959961 277.84 2.27996 280.34 4.76996L277.03 8.90991C275.12 7.43991 273.3 6.63995 271 6.63995C268.7 6.63995 267.3 7.57993 267.3 9.23993C267.3 11.0199 269.2 11.6699 271.73 12.6799L275.43 14.1799C278.98 15.6099 281.19 17.98 281.19 22.08C281.19 26.9 277.17 31.08 270.25 31.08C266.47 31.08 262.46 29.6499 259.49 26.8799H259.5Z" fill="#029694"/>
</svg>
